<svg width="190.000000" height="49.000000" viewBox="0 0 190 49" fill="none" xmlns="http://www.w3.org/2000/svg" xmlns:xlink="http://www.w3.org/1999/xlink">
	<desc>
			Created with Pixso.
	</desc>
	<defs/>
	<path id="Vector" d="M45.37 43.75L36.94 43.75L35.79 49L26.35 49L35.4 14L47.06 14L56.1 49L46.47 49L45.37 43.75ZM43.89 37L41.21 24.41L38.41 37L43.89 37Z" fill="#FFFFFF" fill-opacity="1.000000" fill-rule="nonzero"/>
	<path id="Vector" d="M83.12 14L83.12 49L74.91 49L67.07 30.62L67.07 49L58.3 49L58.3 14L66.52 14L74.36 32.69L74.36 14L83.12 14Z" fill="#FFFFFF" fill-opacity="1.000000" fill-rule="nonzero"/>
	<path id="Vector" d="M108.72 20.81L101.93 20.81L101.93 49L92.36 49L92.36 20.81L85.59 20.81L85.59 14L108.72 14L108.72 20.81Z" fill="#FFFFFF" fill-opacity="1.000000" fill-rule="nonzero"/>
	<path id="Vector" d="M128.01 43.75L119.57 43.75L118.42 49L108.99 49L118.04 14L129.71 14L138.75 49L129.11 49L128.01 43.75ZM126.53 36.99L123.85 24.41L121.05 37L126.53 36.99Z" fill="#FFFFFF" fill-opacity="1.000000" fill-rule="nonzero"/>
	<path id="Vector" d="M154.98 25.99L154.98 21.46C154.98 20.65 154.54 20.26 153.61 20.26L151.63 20.26C150.7 20.26 150.26 20.65 150.26 21.46L150.26 41.53C150.26 42.35 150.7 42.73 151.63 42.73L153.61 42.73C154.54 42.73 154.98 42.35 154.98 41.53L154.98 35.7L152.24 35.7L152.24 29.64L164.55 29.64L164.55 42.24C164.55 46.32 162.35 49 156.5 49L148.71 49C142.85 49 140.66 46.32 140.66 42.24L140.66 20.75C140.66 16.67 142.86 14 148.71 14L156.5 14C162.36 14 164.55 16.67 164.55 20.75L164.55 26L154.98 25.99Z" fill="#FFFFFF" fill-opacity="1.000000" fill-rule="nonzero"/>
	<path id="Vector" d="M190 42.18L190 49L168.4 49L168.4 14L189.51 14L189.51 20.81L177.99 20.81L177.99 27.95L187.91 27.95L187.91 34.77L177.99 34.77L177.99 42.18L190 42.18Z" fill="#FFFFFF" fill-opacity="1.000000" fill-rule="nonzero"/>
	<path id="Vector" d="M18.47 0L11.72 37.38L9.67 25.37L0 25.37L6.18 49L17.31 49L27.26 8.75L190 8.75L18.47 0Z" fill="#FFFFFF" fill-opacity="1.000000" fill-rule="nonzero"/>
</svg>
